<svg width="80" height="70" viewBox="0 0 80 70" fill="none" xmlns="http://www.w3.org/2000/svg">
<g clip-path="url(#clip0_6_4)">
<path d="M71.09 20.74C70.93 20.57 70.76 20.4 70.59 20.24C70.42 20.08 70.26 19.9 70.09 19.74C69.92 19.58 69.76 19.4 69.59 19.24C69.42 19.08 69.26 18.9 69.09 18.74C68.92 18.58 68.76 18.4 68.59 18.24C68.42 18.08 68.26 17.9 68.09 17.74C67.92 17.58 67.76 17.4 67.59 17.24C72.5502 22.1147 75.3918 28.7463 75.5 35.7C75.5 52.27 58.68 65.75 38 65.75C26.42 65.75 16.06 61.52 9.17004 54.89L12.67 58.39C19.55 65.3 30.14 69.75 42 69.75C62.68 69.75 79.5 56.27 79.5 39.75C79.5 32.69 76.46 26 71.09 20.74Z" fill="black"/>
<path fill-rule="evenodd" clip-rule="evenodd" d="M35.12 5.53001C35.134 7.89123 34.6382 10.2277 33.6666 12.3798C32.695 14.5318 31.2703 16.4489 29.49 18C29.21 18.25 29.43 18.73 29.79 18.59C33.16 17.28 37.71 13.36 35.79 5.45001C35.71 5.00001 35.12 5.12001 35.12 5.53001ZM37.39 5.53001C38.6136 7.52644 39.3909 9.76385 39.6688 12.0888C39.9467 14.4138 39.7186 16.7714 39 19C38.88 19.35 39.31 19.65 39.55 19.36C41.74 16.56 43.65 11 37.93 5.00001C37.64 4.74001 37.19 5.14001 37.39 5.49001V5.53001ZM40.15 5.36001C42.0661 6.71656 43.6691 8.46824 44.8507 10.4969C46.0324 12.5256 46.7653 14.784 47 17.12C46.9899 17.2042 47.0125 17.289 47.0633 17.3569C47.114 17.4249 47.189 17.4706 47.2726 17.4848C47.3561 17.4989 47.442 17.4804 47.5123 17.4329C47.5825 17.3855 47.6318 17.3128 47.65 17.23C48.57 13.74 48.05 7.79001 40.48 4.70001C40.08 4.54001 39.82 5.08001 40.15 5.32001V5.36001ZM21.69 15.76C23.9692 15.0791 26.0795 13.9257 27.8835 12.3751C29.6874 10.8244 31.1445 8.9112 32.16 6.76001C32.34 6.40001 32.91 6.54001 32.82 6.94001C31.09 14.94 25.3 16.61 21.7 16.39C21.32 16.4 21.33 15.87 21.69 15.76Z" fill="black"/>
<path d="M38 65.75C17.32 65.75 0.5 52.27 0.5 35.7C0.5 25.7 6.68 16.37 17.03 10.78C20.03 9.18 22.6 7.57 24.89 6.16C26.15 5.38 27.34 4.65 28.49 3.97C32 1.89 35 0.5 38 0.5C41 0.5 43.62 1.7 46.9 3.64C47.9 4.21 48.9 4.83 49.97 5.51C52.46 7.05 55.27 8.79 58.97 10.78C69.32 16.37 75.5 25.69 75.5 35.7C75.5 52.27 58.68 65.75 38 65.75ZM38 3C35.58 3 33 4.25 29.75 6.13C28.62 6.79 27.45 7.52 26.21 8.28C23.88 9.72 21.21 11.35 18.21 12.98C8.69 18.13 3 26.62 3 35.7C3 50.89 18.7 63.25 38 63.25C57.3 63.25 73 50.89 73 35.7C73 26.62 67.31 18.13 57.78 13C54 11 51.05 9.12 48.66 7.64C47.57 6.97 46.57 6.35 45.66 5.8C42.63 4 40.42 3 38 3Z" fill="black"/>
<path d="M38.0901 50.19C36.4237 50.044 34.8555 49.3392 33.6401 48.19C32.0921 46.8807 31.0026 45.1115 30.5301 43.14C30.4962 42.9645 30.5019 42.7836 30.5469 42.6106C30.5919 42.4376 30.675 42.2768 30.7901 42.14C30.9271 41.9745 31.1002 41.8425 31.296 41.7541C31.4918 41.6657 31.7053 41.6233 31.9201 41.63H44.2601C44.4745 41.6255 44.6872 41.6689 44.8827 41.7572C45.0783 41.8454 45.2516 41.9762 45.3901 42.14C45.504 42.2773 45.5857 42.4384 45.6289 42.6115C45.6722 42.7846 45.676 42.9652 45.6401 43.14C45.1676 45.1115 44.078 46.8807 42.5301 48.19C41.3172 49.3372 39.7529 50.0418 38.0901 50.19Z" fill="black"/>
<path fill-rule="evenodd" clip-rule="evenodd" d="M23.6033 28.1989C24.6107 27.7822 25.7197 27.673 26.7888 27.8864C27.8578 28.0999 28.84 28.6256 29.6101 29.3972C30.3802 30.1688 30.9035 31.152 31.115 32.2214C31.3264 33.2908 31.2162 34.3994 30.7976 35.406C30.379 36.4124 29.6707 37.2725 28.7634 37.8767C27.8561 38.4807 26.79 38.8015 25.7 38.7995C24.2403 38.7969 22.8415 38.2154 21.8103 37.1823C20.7792 36.1493 20.1999 34.7493 20.2 33.2898C20.2 32.1997 20.5239 31.1345 21.1296 30.2282C21.7354 29.3221 22.5961 28.6157 23.6033 28.1989ZM24.4177 29.5407C24.016 29.4601 23.5992 29.5006 23.2205 29.6569C22.8417 29.8133 22.5177 30.0782 22.2898 30.4187C22.0619 30.7593 21.9402 31.1602 21.9402 31.57C21.9402 32.1173 22.1567 32.6421 22.5427 33.03C22.9287 33.4179 23.4526 33.6377 23.9998 33.6403C24.4096 33.6423 24.8114 33.5219 25.1531 33.2956C25.4946 33.0694 25.7615 32.7468 25.9197 32.3689C26.0778 31.991 26.1204 31.5746 26.0417 31.1726C25.963 30.7705 25.7663 30.4005 25.4773 30.1101C25.1883 29.8196 24.8194 29.6215 24.4177 29.5407Z" fill="black"/>
<path fill-rule="evenodd" clip-rule="evenodd" d="M48.4109 28.196C49.42 27.7802 50.5295 27.6736 51.5994 27.8894C52.6693 28.1052 53.6517 28.6333 54.4207 29.4079C55.1896 30.1825 55.7106 31.1685 55.9187 32.24C56.1267 33.3114 56.0118 34.4204 55.5886 35.4265C55.1654 36.4325 54.4531 37.2907 53.5417 37.8913C52.6305 38.4918 51.5608 38.8074 50.4695 38.7995C49.0144 38.7915 47.6216 38.2072 46.5964 37.1745C45.5714 36.1418 44.9971 34.7448 44.9998 33.2898C44.9998 32.1984 45.3242 31.1312 45.9314 30.2243C46.5386 29.3175 47.4018 28.6118 48.4109 28.196ZM49.1873 29.5407C48.7855 29.4601 48.3688 29.5006 47.99 29.6569C47.6113 29.8133 47.2872 30.0782 47.0593 30.4187C46.8314 30.7593 46.7097 31.1602 46.7097 31.57C46.7097 32.1138 46.9238 32.6358 47.3054 33.0232C47.6871 33.4105 48.206 33.6324 48.7498 33.6403H48.7703C49.18 33.6423 49.581 33.5218 49.9226 33.2956C50.2643 33.0694 50.531 32.7469 50.6892 32.3689C50.8474 31.9909 50.8899 31.5747 50.8113 31.1726C50.7325 30.7704 50.5359 30.4006 50.2468 30.1101C49.9577 29.8196 49.589 29.6214 49.1873 29.5407Z" fill="black"/>
</g>
<defs>
<clipPath id="clip0_6_4">
<rect width="80" height="70" fill="white"/>
</clipPath>
</defs>
</svg>
