<svg width="80" height="70" viewBox="0 0 80 70" fill="none" xmlns="http://www.w3.org/2000/svg">
<path d="M23.2207 29.6572C23.5995 29.5009 24.0163 29.4604 24.418 29.541C24.8196 29.6218 25.1886 29.82 25.4775 30.1104C25.7664 30.4008 25.9633 30.7709 26.042 31.1729C26.1205 31.5748 26.078 31.9913 25.9199 32.3691C25.7618 32.747 25.4948 33.0697 25.1533 33.2959C24.8117 33.5221 24.4097 33.6426 24 33.6406C23.4529 33.6379 22.9289 33.418 22.543 33.0303C22.157 32.6424 21.9405 32.1174 21.9404 31.5703C21.9404 31.1605 22.0622 30.7596 22.29 30.4189C22.5179 30.0785 22.842 29.8136 23.2207 29.6572Z" fill="white"/>
<path d="M47.9902 29.6572C48.369 29.5009 48.7858 29.4604 49.1875 29.541C49.5892 29.6217 49.9581 29.82 50.2471 30.1104C50.536 30.4008 50.7328 30.7708 50.8115 31.1729C50.8901 31.5748 50.8476 31.9913 50.6895 32.3691C50.5313 32.7471 50.2645 33.0697 49.9229 33.2959C49.5813 33.522 49.1801 33.6425 48.7705 33.6406H48.75C48.2064 33.6327 47.6873 33.4106 47.3057 33.0234C46.9241 32.6362 46.71 32.114 46.71 31.5703C46.71 31.1605 46.8317 30.7596 47.0596 30.4189C47.2874 30.0784 47.6115 29.8136 47.9902 29.6572Z" fill="white"/>
<path fill-rule="evenodd" clip-rule="evenodd" d="M38 0.5C41 0.5 43.6204 1.69965 46.9004 3.63965C47.9002 4.20957 48.8999 4.82987 49.9697 5.50977C52.4597 7.04975 55.2698 8.7903 58.9697 10.7803C62.4463 12.658 65.4517 14.9573 67.9111 17.5615L69.5898 19.2402C69.7598 19.4002 69.9299 19.5703 70.0898 19.7402C75.4597 25.0002 78.4999 31.6901 78.5 38.75L78.4873 39.5225C77.9728 55.6881 61.3567 68.75 41 68.75L39.8916 68.7373C28.4817 68.4697 18.3349 64.0845 11.6699 57.3906L9.25488 54.9756C8.90086 54.6371 8.55619 54.2923 8.2207 53.9414L8.16992 53.8906C8.17706 53.8975 8.18427 53.9043 8.19141 53.9111C3.36902 48.8545 0.500054 42.5415 0.5 35.7002C0.5 25.7002 6.68027 16.3703 17.0303 10.7803C20.0301 9.18037 22.5998 7.57009 24.8896 6.16016C26.1496 5.38016 27.3402 4.64973 28.4902 3.96973C32.0001 1.88982 35.0001 0.5 38 0.5ZM74.1025 26.4629C74.9756 29.0932 75.4561 31.863 75.5 34.6846V34.7002C75.5 34.8489 75.4957 34.9973 75.4932 35.1455C75.4974 35.3302 75.5 35.5151 75.5 35.7002C75.4999 52.2701 58.6799 65.75 38 65.75C37.8344 65.75 37.669 65.7459 37.5039 65.7441C37.3362 65.7459 37.1682 65.75 37 65.75C31.2163 65.75 25.7212 64.7134 20.7852 62.8574C26.5671 65.9379 33.515 67.75 41 67.75C61.3468 67.75 77.4998 54.5213 77.5 38.75C77.5 34.4343 76.3125 30.2504 74.1025 26.4629ZM31.9199 41.6299C31.7052 41.6232 31.4917 41.6655 31.2959 41.7539C31.1001 41.8423 30.9271 41.9743 30.79 42.1396C30.675 42.2764 30.5919 42.4374 30.5469 42.6104C30.5019 42.7833 30.4965 42.9642 30.5303 43.1396C31.0028 45.1112 32.0917 46.8812 33.6396 48.1904C34.8551 49.3396 36.4235 50.0444 38.0898 50.1904C39.7526 50.0422 41.3174 49.3375 42.5303 48.1904C44.0782 46.8812 45.1671 45.1112 45.6396 43.1396C45.6756 42.965 45.6722 42.7843 45.6289 42.6113C45.5856 42.4383 45.5036 42.2769 45.3896 42.1396C45.2512 41.976 45.0782 41.845 44.8828 41.7568C44.6873 41.6686 44.4742 41.6254 44.2598 41.6299H31.9199ZM26.7891 27.8867C25.72 27.6733 24.6109 27.7825 23.6035 28.1992C22.5963 28.616 21.7357 29.3223 21.1299 30.2285C20.5241 31.1347 20.2002 32.2 20.2002 33.29C20.2003 34.7495 20.7795 36.1497 21.8105 37.1826C22.8417 38.2155 24.2407 38.7972 25.7002 38.7998C26.7901 38.8017 27.8564 38.4809 28.7637 37.877C29.6709 37.2728 30.3793 36.4126 30.7979 35.4062C31.2164 34.3998 31.3266 33.291 31.1152 32.2217C30.9038 31.1524 30.3803 30.169 29.6104 29.3975C28.8403 28.626 27.858 28.1002 26.7891 27.8867ZM51.5996 27.8896C50.5298 27.6739 49.4202 27.7805 48.4111 28.1963C47.4021 28.6121 46.5389 29.3178 45.9316 30.2246C45.3245 31.1315 45.0001 32.1987 45 33.29C44.9974 34.745 45.5717 36.1422 46.5967 37.1748C47.6218 38.2073 49.0148 38.7917 50.4697 38.7998C51.5609 38.8077 52.6308 38.492 53.542 37.8916C54.4532 37.2911 55.1657 36.4327 55.5889 35.4268C56.012 34.4208 56.1269 33.3116 55.9189 32.2402C55.7109 31.1689 55.1897 30.1827 54.4209 29.4082C53.652 28.6337 52.6694 28.1056 51.5996 27.8896ZM37.9297 5C37.6397 4.7403 37.1897 5.1403 37.3896 5.49023V5.53027C38.6132 7.52669 39.3911 9.76388 39.6689 12.0889C39.9468 14.4139 39.7186 16.7715 39 19C38.88 19.3499 39.3098 19.6499 39.5498 19.3604C41.7398 16.5604 43.6497 11 37.9297 5ZM35.79 5.4502C35.71 5.0002 35.1201 5.12027 35.1201 5.53027C35.1341 7.89139 34.6386 10.2279 33.667 12.3799C32.6954 14.5319 31.2705 16.4489 29.4902 18C29.2102 18.25 29.43 18.7298 29.79 18.5898C33.16 17.2798 37.7099 13.36 35.79 5.4502ZM40.4795 4.7002C40.0797 4.54066 39.8205 5.08038 40.1504 5.32031V5.36035C42.0663 6.71686 43.669 8.46856 44.8506 10.4971C46.0322 12.5257 46.7653 14.7842 47 17.1201C46.9899 17.2043 47.0127 17.2895 47.0635 17.3574C47.1142 17.4251 47.1891 17.4702 47.2725 17.4844C47.3561 17.4985 47.4424 17.4801 47.5127 17.4326C47.5826 17.3852 47.6322 17.313 47.6504 17.2305C48.5704 13.7405 48.0495 7.7902 40.4795 4.7002ZM32.8203 6.94043C32.9103 6.54053 32.3403 6.4001 32.1602 6.75977C31.1448 8.91087 29.6876 10.8244 27.8838 12.375C26.08 13.9256 23.9695 15.0788 21.6904 15.7598C21.3304 15.8698 21.3202 16.3996 21.7002 16.3896C25.3002 16.6096 31.0903 14.94 32.8203 6.94043Z" fill="white"/>
</svg>
