<svg width="400" height="400" viewBox="0 0 400 400" fill="none" xmlns="http://www.w3.org/2000/svg">
<path fill-rule="evenodd" clip-rule="evenodd" d="M137.5 262.5C137.5 296.938 165.562 325 200 325C234.438 325 262.5 296.938 262.5 262.5C262.5 253 260.375 243.812 256.312 235.438L277.625 199.938C310.875 198.562 337.5 171.938 337.5 137.5C337.5 103.062 309.438 75 275 75C240.562 75 212.5 103.062 212.5 137.5C212.5 147 214.625 156.188 218.688 164.562L200 195.688L181.312 164.562C185.375 156.25 187.5 147 187.5 137.5C187.5 103.062 159.438 75 125 75C90.5625 75 62.5 103.938 62.5 137.5C62.5 171.062 89.125 198.562 122.375 199.938L143.688 235.438C139.625 243.75 137.5 253 137.5 262.5ZM237.5 137.5C237.5 116.812 254.312 100 275 100C295.688 100 312.5 116.812 312.5 137.5C312.5 158.188 295.688 175 275 175C271.312 175 267.75 174.438 264.375 173.438L226.688 236.188C233.375 243 237.5 252.25 237.5 262.5C237.5 283.188 220.688 300 200 300C179.312 300 162.5 283.188 162.5 262.5C162.5 252.25 166.625 242.938 173.312 236.188L135.625 173.438C132.25 174.438 128.688 175 125 175C104.312 175 87.5 158.188 87.5 137.5C87.5 116.812 104.312 100 125 100C145.688 100 162.5 116.812 162.5 137.5C162.5 147.75 158.375 157.062 151.688 163.812L189.375 226.562C192.75 225.562 196.312 225 200 225C203.688 225 207.25 225.562 210.625 226.562L248.312 163.812C241.625 157 237.5 147.75 237.5 137.5Z" fill="white"/>
</svg>
