<svg width="1004" height="351" viewBox="0 0 1004 351" fill="none" xmlns="http://www.w3.org/2000/svg">
<path d="M0 281.836V0H82.6172V281.836H0Z" fill="#F2ECE4"/>
<path d="M251.758 287.109C223.112 287.109 198.307 282.617 177.344 273.633C156.38 264.648 140.169 251.888 128.711 235.352C117.253 218.685 111.523 198.893 111.523 175.977V175.586C111.523 152.93 117.253 133.333 128.711 116.797C140.299 100.13 156.576 87.3047 177.539 78.3203C198.633 69.2057 223.372 64.6484 251.758 64.6484C280.143 64.6484 304.818 69.2057 325.781 78.3203C346.745 87.3047 363.021 100.065 374.609 116.602C386.198 133.138 391.992 152.799 391.992 175.586V175.977C391.992 199.023 386.198 218.815 374.609 235.352C363.151 251.888 346.94 264.648 325.977 273.633C305.013 282.617 280.273 287.109 251.758 287.109ZM251.758 230.859C262.956 230.859 272.786 228.711 281.25 224.414C289.714 220.117 296.289 213.932 300.977 205.859C305.664 197.656 308.008 187.695 308.008 175.977V175.586C308.008 164.128 305.599 154.362 300.781 146.289C296.094 138.086 289.518 131.836 281.055 127.539C272.721 123.242 262.956 121.094 251.758 121.094C240.43 121.094 230.534 123.242 222.07 127.539C213.737 131.836 207.161 138.086 202.344 146.289C197.656 154.362 195.312 164.128 195.312 175.586V175.977C195.312 187.695 197.656 197.656 202.344 205.859C207.031 213.932 213.607 220.117 222.07 224.414C230.534 228.711 240.43 230.859 251.758 230.859Z" fill="#F2ECE4"/>
<path d="M552.93 287.109C524.284 287.109 499.479 282.617 478.516 273.633C457.552 264.648 441.341 251.888 429.883 235.352C418.424 218.685 412.695 198.893 412.695 175.977V175.586C412.695 152.93 418.424 133.333 429.883 116.797C441.471 100.13 457.747 87.3047 478.711 78.3203C499.805 69.2057 524.544 64.6484 552.93 64.6484C581.315 64.6484 605.99 69.2057 626.953 78.3203C647.917 87.3047 664.193 100.065 675.781 116.602C687.37 133.138 693.164 152.799 693.164 175.586V175.977C693.164 199.023 687.37 218.815 675.781 235.352C664.323 251.888 648.112 264.648 627.148 273.633C606.185 282.617 581.445 287.109 552.93 287.109ZM552.93 230.859C564.128 230.859 573.958 228.711 582.422 224.414C590.885 220.117 597.461 213.932 602.148 205.859C606.836 197.656 609.18 187.695 609.18 175.977V175.586C609.18 164.128 606.771 154.362 601.953 146.289C597.266 138.086 590.69 131.836 582.227 127.539C573.893 123.242 564.128 121.094 552.93 121.094C541.602 121.094 531.706 123.242 523.242 127.539C514.909 131.836 508.333 138.086 503.516 146.289C498.828 154.362 496.484 164.128 496.484 175.586V175.977C496.484 187.695 498.828 197.656 503.516 205.859C508.203 213.932 514.779 220.117 523.242 224.414C531.706 228.711 541.602 230.859 552.93 230.859Z" fill="#F2ECE4"/>
<path d="M720.703 350.195V70.1172H803.125V108.789H804.492C809.57 100.195 816.276 92.5781 824.609 85.9375C832.943 79.2969 842.773 74.1536 854.102 70.5078C865.56 66.7318 878.451 64.8438 892.773 64.8438C914.909 64.8438 934.245 69.401 950.781 78.5156C967.448 87.5 980.404 100.326 989.648 116.992C998.893 133.529 1003.52 153.125 1003.52 175.781V176.172C1003.52 198.828 998.893 218.49 989.648 235.156C980.404 251.693 967.513 264.518 950.977 273.633C934.44 282.617 915.169 287.109 893.164 287.109C878.841 287.109 865.885 285.286 854.297 281.641C842.839 277.995 832.943 272.917 824.609 266.406C816.276 259.896 809.57 252.344 804.492 243.75H803.125V350.195H720.703ZM861.719 229.492C873.438 229.492 883.659 227.344 892.383 223.047C901.107 218.75 907.812 212.63 912.5 204.688C917.188 196.745 919.531 187.174 919.531 175.977V175.781C919.531 164.583 917.122 155.013 912.305 147.07C907.617 139.128 900.911 133.073 892.188 128.906C883.594 124.609 873.438 122.461 861.719 122.461C849.87 122.461 839.518 124.609 830.664 128.906C821.94 133.203 815.169 139.323 810.352 147.266C805.534 155.208 803.125 164.714 803.125 175.781V176.172C803.125 187.109 805.534 196.615 810.352 204.688C815.169 212.63 821.94 218.75 830.664 223.047C839.518 227.344 849.87 229.492 861.719 229.492Z" fill="#F2ECE4"/>
</svg>
